<?xml version="1.0" encoding="UTF-8" standalone="no"?>
<!DOCTYPE svg PUBLIC "-//W3C//DTD SVG 1.1//EN" "http://www.w3.org/Graphics/SVG/1.1/DTD/svg11.dtd">
<svg width="100%" height="100%" viewBox="0 0 1622 941" version="1.1" xmlns="http://www.w3.org/2000/svg" xmlns:xlink="http://www.w3.org/1999/xlink" xml:space="preserve" xmlns:serif="http://www.serif.com/" style="fill-rule:evenodd;clip-rule:evenodd;stroke-linejoin:round;stroke-miterlimit:2;">
    <g id="ge" transform="matrix(1.67824,0,0,1.67824,-145.998,-374.599)">
        <path id="main" d="M593.327,504.488L593.039,504.488C593.039,628.033 675.532,756.288 833.451,756.288C995.001,756.288 1061.98,622.522 1051.95,503.497L1051.17,494.337L826.337,494.337L826.337,514.337L1032.62,514.337C1037.71,620.494 976.64,736.288 833.451,736.288C692.769,736.288 617.682,625.081 613.247,514.847L680.221,514.847L680.751,505.408C689.045,357.79 876.168,297.811 966.863,423.099L973.741,432.6L982.034,424.306C992.577,413.763 1036.27,369.981 1036.27,369.981L1022.23,355.735C1022.23,355.735 990.619,387.615 975.978,402.126C873.516,275.854 677.771,339.132 661.538,494.847C661.538,494.847 593.327,494.847 593.327,494.847L593.327,504.488Z"/>
        <path id="inner" d="M886.031,577.001C901.483,577.135 936.176,577.428 957.4,577.539C942.838,629.383 908.029,659.893 867.351,669.887C800.953,686.201 722.08,651.48 687.452,566.677L668.224,566.758C704.2,667.696 797.356,707.679 872.123,689.31C922.512,676.93 965.717,637.799 979.903,569.619L982.408,557.582L970.113,557.582C954.255,557.582 904.502,557.161 885.674,556.997C881.412,545.615 870.43,537.504 857.568,537.504C841.011,537.504 827.568,550.946 827.568,567.504C827.568,584.061 841.011,597.504 857.568,597.504C870.807,597.504 882.055,588.909 886.031,577.001ZM857.568,557.504C863.087,557.504 867.568,561.985 867.568,567.504C867.568,573.023 863.087,577.504 857.568,577.504C852.049,577.504 847.568,573.023 847.568,567.504C847.568,561.985 852.049,557.504 857.568,557.504Z"/>
        <path id="top" d="M627.965,387.966C626.719,387.808 625.45,387.727 624.162,387.727C607.604,387.727 594.162,401.17 594.162,417.727C594.162,434.284 607.604,447.727 624.162,447.727C640.719,447.727 654.162,434.284 654.162,417.727C654.162,409.702 651.004,402.408 645.865,397.023C718.066,278.88 865.937,261.773 963.635,330.286L975.118,313.911C868.271,238.982 706.328,257.936 627.965,387.966ZM624.162,407.727C629.681,407.727 634.162,412.208 634.162,417.727C634.162,423.246 629.681,427.727 624.162,427.727C618.643,427.727 614.162,423.246 614.162,417.727C614.162,412.208 618.643,407.727 624.162,407.727Z"/>
    </g>
    <g id="em" transform="matrix(1.67824,0,0,1.67824,-42.6653,-374.599)">
        <path id="bottom" d="M95.099,399.209L25.423,748.4L115.952,748.4L159.757,499.265L285.328,783.586L413.625,499.816L452.301,747.98L564.41,747.98L559.273,727.98L469.425,727.98C469.425,727.98 423.051,430.419 423.051,430.419L285.541,734.566L151.458,430.97L99.162,728.4C99.162,728.4 49.808,728.4 49.808,728.4L114.789,402.737C129.037,400.412 139.928,388.033 139.928,373.129C139.928,356.572 126.485,343.129 109.928,343.129C93.371,343.129 79.928,356.572 79.928,373.129C79.928,384.294 86.04,394.042 95.099,399.209ZM109.928,363.129C115.447,363.129 119.928,367.61 119.928,373.129C119.928,378.648 115.447,383.129 109.928,383.129C104.409,383.129 99.928,378.648 99.928,373.129C99.928,367.61 104.409,363.129 109.928,363.129Z"/>
        <path id="top1" serif:id="top" d="M522.273,632.463L449.276,223.209L286.369,581.544C286.369,581.544 127.586,224.789 127.586,224.789L106.771,224.716L286.112,630.432L440.876,290.012L502.508,635.551C493.129,640.627 486.753,650.552 486.753,661.955C486.753,678.513 500.195,691.955 516.753,691.955C533.31,691.955 546.753,678.513 546.753,661.955C546.753,647.284 536.198,635.058 522.273,632.463ZM516.753,651.955C522.272,651.955 526.753,656.436 526.753,661.955C526.753,667.475 522.272,671.955 516.753,671.955C511.234,671.955 506.753,667.475 506.753,661.955C506.753,656.436 511.234,651.955 516.753,651.955Z"/>
    </g>
</svg>
